<svg version="1.1" id="Layer_1" xmlns="http://www.w3.org/2000/svg" xmlns:xlink="http://www.w3.org/1999/xlink" x="0px" y="0px" viewBox="0 0 500 500" style="width: 185px;" xml:space="preserve" data-imageid="404-page-not-found-1-77" imageName="404 Page Not Found 1" class="illustrations_image">
<style type="text/css">
	.st0_404-page-not-found-1-77{fill:#68E1FD;}
	.st1_404-page-not-found-1-77{fill:#FFFFFF;}
	.st2_404-page-not-found-1-77{fill:#231F20;}
	.st3_404-page-not-found-1-77{fill:#D1D3D4;}
</style>
<g id="Numbers_404-page-not-found-1-77">
	<path class="st0_404-page-not-found-1-77 targetColor" d="M107.9,303.8H39.1v-27.2l65.2-101.8h31.1v104.3h23.6v24.7h-23.6v32.9h-27.4V303.8z M107.9,213.7h-0.5L67,279.1&#xA;&#9;&#9;h40.9V213.7z" style="fill: rgb(150, 114, 234);"/>
	<path class="st0_404-page-not-found-1-77 targetColor" d="M409.9,303.8h-68.8v-27.2l65.2-101.8h31.1v104.3h23.6v24.7h-23.6v32.9h-27.4V303.8z M414.7,213.7h-0.5&#xA;&#9;&#9;l-40.5,65.4h40.9L414.7,213.7z" style="fill: rgb(150, 114, 234);"/>
</g>
<g id="Chraracter_404-page-not-found-1-77">
	<path class="st1_404-page-not-found-1-77" d="M245.1,182.9c-40.2,0-72.7,32.5-72.8,72.7c0,40.2,32.5,72.7,72.7,72.8s72.7-32.5,72.8-72.7c0,0,0,0,0,0&#xA;&#9;&#9;C317.8,215.5,285.2,182.9,245.1,182.9z"/>
	<path class="st2_404-page-not-found-1-77" d="M245.1,329.1c-40.6,0-73.5-32.9-73.5-73.4s32.9-73.5,73.4-73.5s73.5,32.9,73.5,73.4c0,0,0,0,0,0&#xA;&#9;&#9;C318.5,296.2,285.6,329,245.1,329.1z M245.1,183.6c-39.8,0-72,32.2-72,72s32.2,72,72,72s72-32.2,72-72l0,0&#xA;&#9;&#9;C317,215.9,284.8,183.7,245.1,183.6L245.1,183.6z"/>
	<ellipse class="st2_404-page-not-found-1-77" cx="283.2" cy="232" rx="3.4" ry="5"/>
	<path class="st2_404-page-not-found-1-77" d="M159.6,234.1l170.8-37.8l-33.6-9.8c0,0-18.3-30.2-23.1-30.8S180.6,174,180.6,174l-5.6,42.5L159.6,234.1z"/>
	<path class="st2_404-page-not-found-1-77" d="M279.2,286.5c-0.3,0-0.5-0.1-0.6-0.4c-18.5-31.4-61.1-14.8-61.5-14.7c-0.4,0.1-0.8,0-0.9-0.4&#xA;&#9;&#9;c-0.1-0.4,0-0.8,0.4-0.9c0.4-0.2,44.2-17.2,63.3,15.3c0.2,0.3,0.1,0.8-0.2,1c0,0,0,0,0,0C279.4,286.5,279.3,286.5,279.2,286.5z"/>
	<polygon class="st2_404-page-not-found-1-77" points="195.2,336.4 175.9,305.9 260.3,291.5 266.1,320.7 274.7,293.8 317.8,302.3 309,336.4 &#9;"/>
	<path class="st1_404-page-not-found-1-77" d="M303.4,270.3l7.8-1.1l0,0l4,29c0.3,2-1.1,3.9-3.2,4.2h0l-0.5,0.1c-2,0.3-3.9-1.1-4.2-3.2l0,0L303.4,270.3&#xA;&#9;&#9;L303.4,270.3z"/>
	<path class="st2_404-page-not-found-1-77" d="M311,303.2c-2.2,0-4.1-1.6-4.4-3.8l-4-29c0-0.4,0.2-0.7,0.6-0.8l7.8-1.1c0.2,0,0.4,0,0.5,0.1&#xA;&#9;&#9;c0.1,0.1,0.2,0.3,0.3,0.5l4,29c0.4,2.4-1.3,4.6-3.7,5c0,0,0,0,0,0l-0.5,0.1C311.4,303.2,311.2,303.2,311,303.2z M304.1,270.9&#xA;&#9;&#9;l3.9,28.4c0.2,1.6,1.7,2.8,3.4,2.6l0.5-0.1l0,0c1.6-0.2,2.8-1.7,2.6-3.4l-3.9-28.3L304.1,270.9z"/>
	
		<rect x="299.3" y="243.6" transform="matrix(0.9906 -0.1371 0.1371 0.9906 -32.4796 44.3355)" class="st1_404-page-not-found-1-77" width="12.7" height="28.7"/>
	<path class="st2_404-page-not-found-1-77" d="M301.3,273.7c-0.2,0-0.3,0-0.4-0.1c-0.1-0.1-0.2-0.3-0.3-0.5l-3.9-28.4c0-0.2,0-0.4,0.1-0.5&#xA;&#9;&#9;c0.1-0.1,0.3-0.2,0.5-0.3l12.5-1.7c0.4,0,0.7,0.2,0.8,0.6l3.9,28.4c0,0.4-0.2,0.7-0.6,0.8L301.3,273.7L301.3,273.7z M298.2,245.2&#xA;&#9;&#9;l3.7,27l11.2-1.5l-3.7-27L298.2,245.2z"/>
	<path class="st1_404-page-not-found-1-77" d="M308.5,292.1l3.7-0.5c2.4-0.3,4.7,1.4,5,3.8l5.6,40.5c0.3,2.4-1.4,4.7-3.8,5l-3.7,0.5c-2.4,0.3-4.7-1.4-5-3.8&#xA;&#9;&#9;l-5.6-40.5C304.3,294.7,306,292.4,308.5,292.1z"/>
	<path class="st2_404-page-not-found-1-77" d="M314.7,342.2c-2.6,0-4.8-1.9-5.1-4.5l-5.6-40.5c-0.4-2.8,1.6-5.4,4.4-5.8l3.7-0.5c1.4-0.2,2.7,0.2,3.8,1&#xA;&#9;&#9;c1.1,0.8,1.8,2.1,2,3.4l5.6,40.5c0.4,2.8-1.6,5.4-4.4,5.8l0,0l-3.7,0.5C315.1,342.2,314.9,342.2,314.7,342.2z M319,341L319,341z&#xA;&#9;&#9; M312.8,292.3c-0.2,0-0.3,0-0.5,0l-3.7,0.5c-2.1,0.3-3.5,2.2-3.2,4.3l5.6,40.5c0.3,2.1,2.2,3.5,4.3,3.2l3.7-0.5&#xA;&#9;&#9;c2.1-0.3,3.5-2.2,3.2-4.2c0,0,0,0,0,0l-5.6-40.5c-0.2-1-0.7-1.9-1.5-2.5C314.4,292.5,313.6,292.3,312.8,292.3L312.8,292.3z"/>
	<circle class="st1_404-page-not-found-1-77" cx="302.6" cy="236.5" r="33.7"/>
	<path class="st2_404-page-not-found-1-77" d="M302.6,270.9c-19,0-34.3-15.4-34.3-34.4s15.4-34.3,34.4-34.3c17.1,0,31.7,12.7,34,29.6l0,0&#xA;&#9;&#9;c2.6,18.8-10.6,36.2-29.4,38.7C305.7,270.8,304.2,270.9,302.6,270.9z M302.7,203.6c-1.5,0-3,0.1-4.5,0.3&#xA;&#9;&#9;c-18,2.5-30.6,19.1-28.1,37.2c2.5,18,19.1,30.6,37.2,28.1s30.6-19.1,28.1-37.2c0,0,0,0,0,0l0,0C333,215.7,319.1,203.6,302.7,203.6&#xA;&#9;&#9;L302.7,203.6z"/>
	<circle class="st1_404-page-not-found-1-77" cx="302.6" cy="236.5" r="27.3"/>
	<path class="st2_404-page-not-found-1-77" d="M302.6,264.5c-15.5,0.2-28.2-12.1-28.4-27.6c-0.2-14.3,10.4-26.5,24.6-28.2c15.3-2.1,29.5,8.6,31.6,23.9&#xA;&#9;&#9;c2.1,15.3-8.6,29.5-23.9,31.6l0,0C305.2,264.5,303.9,264.5,302.6,264.5z M302.7,209.9c-1.2,0-2.5,0.1-3.7,0.2&#xA;&#9;&#9;c-14.6,2-24.8,15.5-22.7,30c2,14.6,15.5,24.8,30,22.7c14.6-2,24.8-15.5,22.7-30c-1-7-4.7-13.3-10.3-17.6&#xA;&#9;&#9;C314.1,211.8,308.5,209.9,302.7,209.9z"/>
	<path class="st1_404-page-not-found-1-77" d="M334.8,312.4c-1.8-2.4-4.2-4.3-6.9-5.7c-8-4.1-17.2-4.1-25.7-1.4c-3,1-8.8,2.3-9.1,6.3c0,1.6,1.1,3,2.7,3.5&#xA;&#9;&#9;c1.5,0.4,3.1,0.5,4.7,0.2c-2.2,0.1-4.5,0.3-6.3,1.6s-2.7,4-1.3,5.7c0.7,0.7,1.5,1.2,2.4,1.4c2,0.6,4.2,0.5,6.2-0.1&#xA;&#9;&#9;c-2.2,0.4-4.3,1.1-6.4,2c-1.2,0.5-2.6,1.5-2.5,2.9s1.4,1.9,2.5,2.3c2.4,0.8,4.9,1.3,7.5,1.4c-2.2,0.6-4.4,1.2-6.1,2.6&#xA;&#9;&#9;c-2.7,2.3-2.8,6.8,1,8.1c1.2,0.3,2.5,0.5,3.8,0.4c11.2,0,24.6-1.4,32.2-10.7c3.6-4.4,5.3-10.5,3.6-15.8&#xA;&#9;&#9;C336.7,315.3,335.8,313.7,334.8,312.4z"/>
	<path class="st2_404-page-not-found-1-77" d="M301.3,344.3c-1.3,0.1-2.6-0.1-3.9-0.5c-1.7-0.5-3-1.9-3.3-3.7c-0.3-2.1,0.5-4.2,2.1-5.6&#xA;&#9;&#9;c0.9-0.7,1.9-1.3,3-1.8c-1.4-0.2-2.8-0.6-4.2-1.1c-1.9-0.6-2.9-1.6-3-2.9s0.9-2.7,2.9-3.6l1-0.4c-0.2,0-0.5-0.1-0.8-0.2&#xA;&#9;&#9;c-1.1-0.2-2.1-0.8-2.8-1.6c-0.7-0.8-1-1.9-0.8-3c0.2-1.5,1-2.9,2.3-3.8c0.4-0.3,0.9-0.5,1.4-0.8c-1.6-0.7-2.7-2.2-2.7-4&#xA;&#9;&#9;c0.3-4.1,5.4-5.6,8.7-6.6l0.9-0.3c9.4-3,18.6-2.4,26.2,1.5c2.8,1.4,5.2,3.4,7.1,5.9c1.1,1.5,2,3.1,2.5,4.9&#xA;&#9;&#9;c1.7,5.3,0.2,11.6-3.7,16.5C326.2,343,312.5,344.3,301.3,344.3L301.3,344.3z M300,325c-1.6,0.4-3.1,0.9-4.5,1.6&#xA;&#9;&#9;c-0.6,0.3-2.2,1.1-2,2.1c0.1,0.8,1.2,1.4,2.1,1.7c2.3,0.8,4.8,1.3,7.3,1.4c0.4,0,0.7,0.3,0.7,0.7c0,0.3-0.2,0.6-0.5,0.7&#xA;&#9;&#9;c-2,0.5-4.2,1.1-5.8,2.5c-1.3,1-1.9,2.7-1.6,4.3c0.2,1.3,1.2,2.3,2.4,2.6c1.1,0.3,2.3,0.5,3.5,0.4c10.8,0,24.1-1.2,31.7-10.5&#xA;&#9;&#9;c3.7-4.5,5-10.3,3.5-15.2c-0.5-1.6-1.3-3.1-2.3-4.4l0,0c-1.8-2.3-4-4.2-6.6-5.5c-7.2-3.7-16.1-4.2-25.1-1.4l-0.9,0.3&#xA;&#9;&#9;c-3,0.9-7.5,2.2-7.7,5.4c0.1,1.3,0.9,2.4,2.1,2.7c0.8,0.3,1.7,0.4,2.5,0.3c0.7-0.1,1.3-0.1,1.9-0.1c0.4,0,0.7,0.3,0.7,0.6&#xA;&#9;&#9;c0,0.4-0.2,0.7-0.6,0.8c-0.6,0.1-1.3,0.1-2,0.2c-1.4,0.1-2.8,0.5-4,1.3c-0.9,0.7-1.5,1.7-1.7,2.8c-0.1,0.7,0.1,1.4,0.5,1.9&#xA;&#9;&#9;c0.6,0.6,1.3,1,2.1,1.1c1.4,0.4,2.8,0.5,4.2,0.3c0.6-0.1,1.1-0.3,1.7-0.4c0.4-0.1,0.7,0.2,0.8,0.5c0.1,0.4-0.1,0.7-0.5,0.8&#xA;&#9;&#9;C301.1,324.8,300.6,324.9,300,325z"/>
	<path class="st2_404-page-not-found-1-77" d="M261.6,263.9c-8.6,0-9.9-2.4-10.1-2.9c-0.1-0.4,0.1-0.8,0.5-0.9s0.8,0.1,0.9,0.5l0,0c0,0,1.2,2.2,10.5,1.8&#xA;&#9;&#9;c0.9,0.1,1.8-0.4,2.3-1.2c2.2-4.3-6.2-18.6-9.6-23.7c-0.2-0.3-0.1-0.8,0.2-1c0.3-0.2,0.8-0.1,1,0.2c0,0,0,0,0,0&#xA;&#9;&#9;c1.3,2,12.7,19.3,9.7,25.2c-0.7,1.3-2.1,2.1-3.5,2C262.8,263.8,262.2,263.9,261.6,263.9z"/>
	<ellipse class="st3_404-page-not-found-1-77" cx="304.2" cy="235.7" rx="6.2" ry="10.6"/>
	<ellipse class="st2_404-page-not-found-1-77" cx="228.5" cy="235.7" rx="4.7" ry="8.5"/>
</g>
</svg>