<svg xmlns="http://www.w3.org/2000/svg" version="1.1" xmlns:xlink="http://www.w3.org/1999/xlink" xmlns:svgjs="http://svgjs.dev/svgjs" viewBox="0 0 1422 800"><defs><linearGradient x1="50%" y1="0%" x2="50%" y2="100%" id="oooscillate-grad"><stop stop-color="#9672ea" stop-opacity="1" offset="0%"></stop><stop stop-color="#f48fb1" stop-opacity="1" offset="100%"></stop></linearGradient></defs><g stroke-width="2.5" stroke="url(#oooscillate-grad)" fill="none" stroke-linecap="round"><path d="M 0 667 Q 355.5 40 711 400 Q 1066.5 760 1422 667" opacity="0.05"></path><path d="M 0 638 Q 355.5 40 711 400 Q 1066.5 760 1422 638" opacity="0.09"></path><path d="M 0 609 Q 355.5 40 711 400 Q 1066.5 760 1422 609" opacity="0.14"></path><path d="M 0 580 Q 355.5 40 711 400 Q 1066.5 760 1422 580" opacity="0.18"></path><path d="M 0 551 Q 355.5 40 711 400 Q 1066.5 760 1422 551" opacity="0.22"></path><path d="M 0 522 Q 355.5 40 711 400 Q 1066.5 760 1422 522" opacity="0.27"></path><path d="M 0 493 Q 355.5 40 711 400 Q 1066.5 760 1422 493" opacity="0.31"></path><path d="M 0 464 Q 355.5 40 711 400 Q 1066.5 760 1422 464" opacity="0.35"></path><path d="M 0 435 Q 355.5 40 711 400 Q 1066.5 760 1422 435" opacity="0.40"></path><path d="M 0 406 Q 355.5 40 711 400 Q 1066.5 760 1422 406" opacity="0.44"></path><path d="M 0 377 Q 355.5 40 711 400 Q 1066.5 760 1422 377" opacity="0.48"></path><path d="M 0 348 Q 355.5 40 711 400 Q 1066.5 760 1422 348" opacity="0.53"></path><path d="M 0 319 Q 355.5 40 711 400 Q 1066.5 760 1422 319" opacity="0.57"></path><path d="M 0 290 Q 355.5 40 711 400 Q 1066.5 760 1422 290" opacity="0.61"></path><path d="M 0 261 Q 355.5 40 711 400 Q 1066.5 760 1422 261" opacity="0.65"></path><path d="M 0 232 Q 355.5 40 711 400 Q 1066.5 760 1422 232" opacity="0.70"></path><path d="M 0 203 Q 355.5 40 711 400 Q 1066.5 760 1422 203" opacity="0.74"></path><path d="M 0 174 Q 355.5 40 711 400 Q 1066.5 760 1422 174" opacity="0.78"></path><path d="M 0 145 Q 355.5 40 711 400 Q 1066.5 760 1422 145" opacity="0.83"></path><path d="M 0 116 Q 355.5 40 711 400 Q 1066.5 760 1422 116" opacity="0.87"></path><path d="M 0 87 Q 355.5 40 711 400 Q 1066.5 760 1422 87" opacity="0.91"></path><path d="M 0 58 Q 355.5 40 711 400 Q 1066.5 760 1422 58" opacity="0.96"></path></g></svg>